<svg width="1680" height="871" viewBox="0 0 1680 871" fill="none" xmlns="http://www.w3.org/2000/svg">
<line opacity="0.3" x1="882.275" y1="1.09278e-08" x2="882.275" y2="1643" stroke="#3C3C3B" stroke-opacity="0.7" stroke-width="0.5"/>
<line opacity="0.3" x1="348.264" y1="1.09278e-08" x2="348.264" y2="1643" stroke="#3C3C3B" stroke-opacity="0.7" stroke-width="0.5"/>
<line opacity="0.3" x1="1416.29" y1="1.09278e-08" x2="1416.29" y2="1643" stroke="#3C3C3B" stroke-opacity="0.7" stroke-width="0.5"/>
<line opacity="0.3" x1="81.2559" y1="1.09278e-08" x2="81.2558" y2="1643" stroke="#3C3C3B" stroke-opacity="0.7" stroke-width="0.5"/>
<line opacity="0.3" x1="1149.28" y1="1.09278e-08" x2="1149.28" y2="1643" stroke="#3C3C3B" stroke-opacity="0.7" stroke-width="0.5"/>
<line opacity="0.3" x1="615.27" y1="1.09278e-08" x2="615.269" y2="1643" stroke="#3C3C3B" stroke-opacity="0.7" stroke-width="0.5"/>
<line opacity="0.3" x1="1015.78" y1="1.09278e-08" x2="1015.78" y2="1643" stroke="#3C3C3B" stroke-opacity="0.7" stroke-width="0.5"/>
<line opacity="0.3" x1="481.766" y1="1.09278e-08" x2="481.766" y2="1643" stroke="#3C3C3B" stroke-opacity="0.7" stroke-width="0.5"/>
<line opacity="0.3" x1="1549.79" y1="1.09278e-08" x2="1549.79" y2="1643" stroke="#3C3C3B" stroke-opacity="0.7" stroke-width="0.5"/>
<line opacity="0.3" x1="214.76" y1="1.09278e-08" x2="214.76" y2="1643" stroke="#3C3C3B" stroke-opacity="0.7" stroke-width="0.5"/>
<line opacity="0.3" x1="1282.79" y1="1.09278e-08" x2="1282.79" y2="1643" stroke="#3C3C3B" stroke-opacity="0.7" stroke-width="0.5"/>
<line opacity="0.3" x1="748.773" y1="1.09278e-08" x2="748.773" y2="1643" stroke="#3C3C3B" stroke-opacity="0.7" stroke-width="0.5"/>
<line opacity="0.3" x1="949.027" y1="1.09278e-08" x2="949.027" y2="1643" stroke="#3C3C3B" stroke-opacity="0.7" stroke-width="0.5"/>
<line opacity="0.3" x1="415.016" y1="1.09278e-08" x2="415.016" y2="1643" stroke="#3C3C3B" stroke-opacity="0.7" stroke-width="0.5"/>
<line opacity="0.3" x1="1483.04" y1="1.09278e-08" x2="1483.04" y2="1643" stroke="#3C3C3B" stroke-opacity="0.7" stroke-width="0.5"/>
<line opacity="0.3" x1="148.008" y1="1.09278e-08" x2="148.008" y2="1643" stroke="#3C3C3B" stroke-opacity="0.7" stroke-width="0.5"/>
<line opacity="0.3" x1="1216.03" y1="1.09278e-08" x2="1216.03" y2="1643" stroke="#3C3C3B" stroke-opacity="0.7" stroke-width="0.5"/>
<line opacity="0.3" x1="682.021" y1="1.09278e-08" x2="682.021" y2="1643" stroke="#3C3C3B" stroke-opacity="0.7" stroke-width="0.5"/>
<line opacity="0.3" x1="14.5039" y1="1.09278e-08" x2="14.5038" y2="1643" stroke="#3C3C3B" stroke-opacity="0.7" stroke-width="0.5"/>
<line opacity="0.3" x1="1082.53" y1="1.09278e-08" x2="1082.53" y2="1643" stroke="#3C3C3B" stroke-opacity="0.7" stroke-width="0.5"/>
<line opacity="0.3" x1="548.518" y1="1.09278e-08" x2="548.518" y2="1643" stroke="#3C3C3B" stroke-opacity="0.7" stroke-width="0.5"/>
<line opacity="0.3" x1="1616.54" y1="1.09278e-08" x2="1616.54" y2="1643" stroke="#3C3C3B" stroke-opacity="0.7" stroke-width="0.5"/>
<line opacity="0.3" x1="281.512" y1="1.09278e-08" x2="281.512" y2="1643" stroke="#3C3C3B" stroke-opacity="0.7" stroke-width="0.5"/>
<line opacity="0.3" x1="1349.54" y1="1.09278e-08" x2="1349.54" y2="1643" stroke="#3C3C3B" stroke-opacity="0.7" stroke-width="0.5"/>
<line opacity="0.3" x1="815.523" y1="1.09278e-08" x2="815.523" y2="1643" stroke="#3C3C3B" stroke-opacity="0.7" stroke-width="0.5"/>
<line opacity="0.3" x1="-186" y1="55.8818" x2="1883.3" y2="55.8818" stroke="#3C3C3B" stroke-opacity="0.7" stroke-width="0.5"/>
<line opacity="0.3" x1="-186" y1="589.895" x2="1883.3" y2="589.895" stroke="#3C3C3B" stroke-opacity="0.7" stroke-width="0.5"/>
<line opacity="0.3" x1="-186" y1="322.889" x2="1883.3" y2="322.889" stroke="#3C3C3B" stroke-opacity="0.7" stroke-width="0.5"/>
<line opacity="0.3" x1="-186" y1="856.901" x2="1883.3" y2="856.901" stroke="#3C3C3B" stroke-opacity="0.7" stroke-width="0.5"/>
<line opacity="0.3" x1="-186" y1="189.385" x2="1883.3" y2="189.385" stroke="#3C3C3B" stroke-opacity="0.7" stroke-width="0.5"/>
<line opacity="0.3" x1="-186" y1="723.398" x2="1883.3" y2="723.398" stroke="#3C3C3B" stroke-opacity="0.7" stroke-width="0.5"/>
<line opacity="0.3" x1="-186" y1="456.392" x2="1883.3" y2="456.392" stroke="#3C3C3B" stroke-opacity="0.7" stroke-width="0.5"/>
<line opacity="0.3" x1="-186" y1="122.634" x2="1883.3" y2="122.634" stroke="#3C3C3B" stroke-opacity="0.7" stroke-width="0.5"/>
<line opacity="0.3" x1="-186" y1="656.646" x2="1883.3" y2="656.646" stroke="#3C3C3B" stroke-opacity="0.7" stroke-width="0.5"/>
<line opacity="0.3" x1="-186" y1="389.64" x2="1883.3" y2="389.64" stroke="#3C3C3B" stroke-opacity="0.7" stroke-width="0.5"/>
<line opacity="0.3" x1="-186" y1="256.137" x2="1883.3" y2="256.137" stroke="#3C3C3B" stroke-opacity="0.7" stroke-width="0.5"/>
<line opacity="0.3" x1="-186" y1="790.15" x2="1883.3" y2="790.15" stroke="#3C3C3B" stroke-opacity="0.7" stroke-width="0.5"/>
<line opacity="0.3" x1="-186" y1="523.144" x2="1883.3" y2="523.144" stroke="#3C3C3B" stroke-opacity="0.7" stroke-width="0.5"/>
</svg>
