<svg width="533" height="473" viewBox="0 0 533 473" fill="none" xmlns="http://www.w3.org/2000/svg">
<path opacity="0.1" fill-rule="evenodd" clip-rule="evenodd" d="M559.196 -41.2239C561.514 -40.3801 563.651 -38.6508 564.669 -36.4125L564.421 -36.5554C565.439 -34.3172 565.534 -31.6222 564.691 -29.3038L460.39 241.798C460.157 242.489 459.248 243.779 459.248 243.779L296.283 468.451C295.088 470.236 293.294 471.344 291.342 471.867C288.806 472.547 286.007 472.251 283.675 470.574L13.5615 277.405C11.2298 275.728 9.91199 273.152 9.76502 270.261L0.341711 3.26525L0.289397 3.07001C0.184769 2.67953 0.253597 2.24257 0.322429 1.80563C0.356846 1.58715 0.391263 1.36867 0.403995 1.156C0.546824 0.908476 0.49451 0.713238 0.49451 0.713238C0.611181 0.368089 0.740931 0.0717543 0.870683 -0.224588C1.00043 -0.520922 1.13018 -0.817255 1.24685 -1.1624C1.38967 -1.40992 1.58481 -1.46221 1.58481 -1.46221C1.79392 -1.82461 2.03107 -2.08239 2.33176 -2.40922C2.44183 -2.52886 2.5604 -2.65775 2.68924 -2.80442C2.83207 -3.05194 3.22234 -3.15652 3.22234 -3.15652L3.22241 -3.15661C3.70319 -3.70391 4.18396 -4.25121 4.76936 -4.40806L244.688 -138.585C247.068 -139.851 249.514 -140.088 252.027 -139.296L559.196 -41.2239Z" fill="#D9D9D9"/>
</svg>
